<svg xmlns="http://www.w3.org/2000/svg" viewBox="0 0 900 360" role="img" aria-label="Federal Reserve and markets thumbnail">
  <defs>
    <linearGradient id="bg" x1="0" x2="1" y1="0" y2="1">
      <stop offset="0" stop-color="#071523"/>
      <stop offset="0.48" stop-color="#14344a"/>
      <stop offset="1" stop-color="#0b1d2b"/>
    </linearGradient>
    <linearGradient id="glass" x1="0" x2="0" y1="0" y2="1">
      <stop offset="0" stop-color="#ffffff" stop-opacity="0.32"/>
      <stop offset="1" stop-color="#ffffff" stop-opacity="0.05"/>
    </linearGradient>
    <filter id="shadow" x="-20%" y="-20%" width="140%" height="140%">
      <feDropShadow dx="0" dy="14" stdDeviation="18" flood-color="#000" flood-opacity="0.35"/>
    </filter>
  </defs>
  <rect width="900" height="360" fill="url(#bg)"/>
  <path d="M0 250 C120 210 185 282 300 230 C430 170 510 225 650 155 C760 100 815 120 900 78 L900 360 L0 360 Z" fill="#38d6c9" opacity="0.14"/>
  <path d="M0 280 C130 238 210 300 342 244 C470 190 550 250 695 176 C785 130 840 138 900 112" fill="none" stroke="#38d6c9" stroke-width="6" opacity="0.8"/>
  <path d="M0 304 C155 280 225 312 350 268 C475 224 555 276 720 215 C810 184 850 193 900 175" fill="none" stroke="#ffbf3f" stroke-width="4" opacity="0.72"/>
  <g filter="url(#shadow)">
    <rect x="86" y="88" width="430" height="196" rx="20" fill="url(#glass)" stroke="#ffffff" stroke-opacity="0.18"/>
    <rect x="126" y="140" width="350" height="26" rx="4" fill="#dce9f5" opacity="0.78"/>
    <rect x="146" y="178" width="310" height="20" rx="4" fill="#dce9f5" opacity="0.52"/>
    <rect x="166" y="211" width="270" height="18" rx="4" fill="#dce9f5" opacity="0.36"/>
    <path d="M106 130 L301 54 L496 130 Z" fill="#eaf6ff" opacity="0.78"/>
    <text x="300" y="260" text-anchor="middle" font-family="Inter,Arial,sans-serif" font-size="42" font-weight="900" fill="#eef7ff">FED</text>
  </g>
  <g transform="translate(560 80)">
    <rect x="0" y="0" width="250" height="190" rx="22" fill="#06131f" opacity="0.68" stroke="#ffffff" stroke-opacity="0.14"/>
    <text x="28" y="54" font-family="Inter,Arial,sans-serif" font-size="22" font-weight="900" fill="#9ffff6">INFLATION</text>
    <text x="28" y="90" font-family="Inter,Arial,sans-serif" font-size="54" font-weight="900" fill="#ffffff">2%</text>
    <text x="28" y="130" font-family="Inter,Arial,sans-serif" font-size="18" font-weight="800" fill="#bfd0e0">rates · policy · USD</text>
    <circle cx="204" cy="52" r="22" fill="#38d6c9" opacity="0.24"/>
    <path d="M190 52 L202 64 L220 39" fill="none" stroke="#38d6c9" stroke-width="6" stroke-linecap="round" stroke-linejoin="round"/>
  </g>
</svg>
