<svg xmlns="http://www.w3.org/2000/svg" viewBox="0 0 900 360" role="img" aria-label="US Supreme Court and politics thumbnail">
  <defs>
    <linearGradient id="bg" x1="0" x2="1" y1="0" y2="1">
      <stop offset="0" stop-color="#071523"/>
      <stop offset="0.52" stop-color="#24364a"/>
      <stop offset="1" stop-color="#0a1522"/>
    </linearGradient>
    <linearGradient id="gold" x1="0" x2="1">
      <stop offset="0" stop-color="#ffbf3f"/>
      <stop offset="1" stop-color="#ffe18a"/>
    </linearGradient>
    <filter id="shadow" x="-20%" y="-20%" width="140%" height="140%">
      <feDropShadow dx="0" dy="16" stdDeviation="18" flood-color="#000" flood-opacity="0.38"/>
    </filter>
  </defs>
  <rect width="900" height="360" fill="url(#bg)"/>
  <circle cx="742" cy="88" r="160" fill="#ffbf3f" opacity="0.10"/>
  <circle cx="190" cy="270" r="180" fill="#38d6c9" opacity="0.10"/>
  <g filter="url(#shadow)" transform="translate(90 72)">
    <path d="M60 96 L360 0 L660 96 Z" fill="#eef7ff" opacity="0.9"/>
    <rect x="88" y="102" width="544" height="24" rx="4" fill="#eef7ff" opacity="0.78"/>
    <g fill="#dce9f5" opacity="0.82">
      <rect x="118" y="138" width="58" height="128" rx="6"/>
      <rect x="216" y="138" width="58" height="128" rx="6"/>
      <rect x="314" y="138" width="58" height="128" rx="6"/>
      <rect x="412" y="138" width="58" height="128" rx="6"/>
      <rect x="510" y="138" width="58" height="128" rx="6"/>
    </g>
    <rect x="78" y="270" width="564" height="28" rx="5" fill="#eef7ff" opacity="0.8"/>
    <rect x="44" y="304" width="632" height="28" rx="5" fill="#eef7ff" opacity="0.62"/>
  </g>
  <g transform="translate(575 178)">
    <rect x="0" y="0" width="235" height="104" rx="20" fill="#06131f" opacity="0.70" stroke="#ffffff" stroke-opacity="0.14"/>
    <text x="24" y="42" font-family="Inter,Arial,sans-serif" font-size="22" font-weight="900" fill="url(#gold)">EXECUTIVE</text>
    <text x="24" y="74" font-family="Inter,Arial,sans-serif" font-size="18" font-weight="800" fill="#dce9f5">power · court · USA</text>
  </g>
</svg>
