<svg width="164" height="44" viewBox="0 0 164 44" fill="none" xmlns="http://www.w3.org/2000/svg">
  <rect x="1" y="1" width="162" height="42" rx="13" fill="url(#bg)" stroke="rgba(255,255,255,0.08)"/>
  <g transform="translate(14 11)">
    <rect x="0.5" y="1" width="20" height="16" rx="5" fill="#0F2E46" stroke="rgba(255,255,255,0.10)" />
    <rect x="4" y="5" width="12" height="2" rx="1" fill="#A8CFFF" />
    <rect x="4" y="9" width="8" height="2" rx="1" fill="rgba(168,207,255,0.55)" />
    <path d="M9 17.2L7.1 19.5C6.9 19.7 6.5 19.6 6.4 19.3L6 17.5" stroke="#0F2E46" stroke-width="1" stroke-linecap="round"/>
  </g>
  <g transform="translate(30 6)">
    <path d="M5.5 0L6.7 3.4L10 4.5L6.7 5.6L5.5 9L4.3 5.6L1 4.5L4.3 3.4L5.5 0Z" fill="#F6C46A"/>
  </g>
  <text x="54" y="19" fill="#EAF2FB" font-family="system-ui, -apple-system, Segoe UI, Roboto, Arial" font-size="12" font-weight="700">
    BriefRooms
  </text>
  <text x="54" y="31" fill="#A8CFFF" font-family="system-ui, -apple-system, Segoe UI, Roboto, Arial" font-size="10">
    AI assistant
  </text>
  <defs>
    <linearGradient id="bg" x1="0" y1="0" x2="164" y2="44" gradientUnits="userSpaceOnUse">
      <stop stop-color="#0B2A40"/>
      <stop offset="1" stop-color="#071E2E"/>
    </linearGradient>
  </defs>
</svg>
